<?xml version="1.0" encoding="UTF-8"?>
<!DOCTYPE svg PUBLIC "-//W3C//DTD SVG 1.1//EN"
    "http://www.w3.org/Graphics/SVG/1.1/DTD/svg11.dtd">
<svg xmlns="http://www.w3.org/2000/svg" xmlns:xlink="http://www.w3.org/1999/xlink" version="1.1" width="19.994534mm" height="19.997267mm" viewBox="-9.994533 10.0 -9.998633 9.998633"><g stroke="rgb(0,0,255)" stroke-width="1" fill="none"><polyline points="1.9994534e1,9.998633e0 1.9972668e1,9.337728e0 1.9907173e1,8.679711e0 1.9798332e1,8.027463e0 1.9646622e1,7.383834e0 1.9452705e1,6.7516384e0 1.921743e1,6.1336412e0 1.8941826e1,5.532545e0 1.8627098e1,4.950978e0 1.827462e1,4.3914824e0 1.7885937e1,3.8565059e0 1.7462746e1,3.3483868e0 1.70069e1,2.8693485e0 1.652039e1,2.421485e0 1.6005344e1,2.006753e0 1.5464014e1,1.6269693e0 1.4898767e1,1.2837906e0 1.4312077e1,9.7872066e-1 1.3706505e1,7.1309376e-1 1.30847025e1,4.8806763e-1 1.2449387e1,3.0463028e-1 1.1803337e1,1.6358185e-1 1.1149378e1,6.554031e-2 1.0490371e1,1.0933876e-2 9.829193e0,0.0e0 9.168739e0,3.2788277e-2 8.511895e0,1.091547e-1 7.861535e0,2.2876549e-1 7.220503e0,3.9109707e-1 6.5916004e0,5.954399e-1 5.9775786e0,8.409004e-1 5.3811216e0,1.1264048e0 4.8048353e0,1.4507065e0 4.2512455e0,1.8123865e0 3.7227688e0,2.2098608e0 3.221715e0,2.641396e0 2.7502813e0,3.1050987e0 2.3105206e0,3.598949e0 1.9043627e0,4.1207814e0 1.5335798e0,4.6683164e0 1.1997948e0,5.239161e0 9.044676e-1,5.830814e0 6.4888763e-1,6.440696e0 4.3417454e-1,7.0661335e0 2.6126575e-1,7.7043967e0 1.3091946e-1,8.352687e0 4.370308e-2,9.008177e0 0.0e0,9.668001e0 0.0e0,1.03292675e1 4.370308e-2,1.0989091e1 1.3091946e-1,1.1644579e1 2.612667e-1,1.2292874e1 4.341755e-1,1.2931135e1 6.488886e-1,1.3556573e1 9.0446854e-1,1.4166454e1 1.1997948e0,1.4758107e1 1.5335808e0,1.5328953e1 1.9043627e0,1.5876487e1 2.3105216e0,1.639832e1 2.7502823e0,1.689217e1 3.2217164e0,1.7355873e1 3.7227721e0,1.7787409e1 4.2512445e0,1.818488e1 4.804839e0,1.8546562e1 5.381123e0,1.8870861e1 5.97758e0,1.9156368e1 6.5916023e0,1.9401829e1 7.2205043e0,1.960617e1 7.861537e0,1.9768501e1 8.511896e0,1.9888111e1 9.168743e0,1.9964478e1 9.829197e0,1.9997267e1 1.0490369e1,1.9986332e1 1.1149382e1,1.9931725e1 1.180334e1,1.9833683e1 1.2449389e1,1.9692635e1 1.3084703e1,1.9509197e1 1.3706506e1,1.9284172e1 1.4312077e1,1.9018545e1 1.4898767e1,1.8713474e1 1.5464018e1,1.8370296e1 1.6005344e1,1.7990513e1 1.652039e1,1.7575783e1 1.7006903e1,1.7127916e1 1.746275e1,1.6648876e1 1.7885937e1,1.6140762e1 1.827462e1,1.5605783e1 1.8627098e1,1.5046288e1 1.8941828e1,1.4464717e1 1.921743e1,1.3863626e1 1.9452705e1,1.3245628e1 1.9646622e1,1.2613429e1 1.9798332e1,1.1969805e1 1.9907173e1,1.1317553e1 1.9972668e1,1.0659537e1 1.9994534e1,9.998627e0 " /></g></svg>